# xmcd
#
# Track frame offsets: 
#        150
#        19165
#        37686
#        54463
#        77674
#        102098
#        123205
#        139346
#        159822
#        183674
#
# Disc length: 2716 seconds
#
# Revision: 6
# Processed by: cddbd v1.5.2PL0 Copyright (c) Steve Scherf et al.
# Submitted via: ExactAudioCopy v0.99pb5
#
DISCID=720a9a0a
DTITLE=HYDE - FAITH
DYEAR=2006
DGENRE=J-Rock
TTITLE0=JESUS CHRIST
TTITLE1=COUNTDOWN
TTITLE2=MADE IN HEAVEN
TTITLE3=I CAN FEEL
TTITLE4=SEASON'S CALL
TTITLE5=FAITH
TTITLE6=DOLLY
TTITLE7=PERFECT MOMENT
TTITLE8=MISSION
TTITLE9=IT'S SAD
EXTD=
EXTT0=
EXTT1=
EXTT2=
EXTT3=
EXTT4=
EXTT5=
EXTT6=
EXTT7=
EXTT8=
EXTT9=
PLAYORDER=
